HIERARCHY
ROOT Hips
{
 OFFSET 0.000000 0.000000 0.000000
 CHANNELS 6 Xposition Yposition Zposition Yrotation Xrotation Zrotation
 JOINT Chest
 {
  OFFSET 0.000000 9.585900 0.002600
  CHANNELS 3 Yrotation Xrotation Zrotation
  JOINT Chest2
  {
   OFFSET 0.000000 9.601200 -0.005300
   CHANNELS 3 Yrotation Xrotation Zrotation
   JOINT Chest3
   {
    OFFSET 0.000000 9.561800 0.000000
    CHANNELS 3 Yrotation Xrotation Zrotation
    JOINT Chest4
    {
     OFFSET 0.000000 9.552100 0.000000
     CHANNELS 3 Yrotation Xrotation Zrotation
     JOINT Neck
     {
      OFFSET 0.000000 14.453000 0.000000
      CHANNELS 3 Yrotation Xrotation Zrotation
      JOINT Head
      {
       OFFSET 0.000000 8.936500 -0.011300
       CHANNELS 3 Yrotation Xrotation Zrotation
       End Site
       {
        OFFSET 0.000000 17.073600 -0.006000
       }
      }
     }
     JOINT RightCollar
     {
      OFFSET -2.921100 9.558500 0.000000
      CHANNELS 3 Yrotation Xrotation Zrotation
      JOINT RightShoulder
      {
       OFFSET -13.519700 0.000000 0.000000
       CHANNELS 3 Yrotation Xrotation Zrotation
       JOINT RightElbow
       {
        OFFSET 0.000000 -29.696600 0.000000
        CHANNELS 3 Yrotation Xrotation Zrotation
        JOINT RightWrist
        {
         OFFSET 0.000000 -24.004700 0.000000
         CHANNELS 3 Yrotation Xrotation Zrotation
         End Site
         {
          OFFSET 0.000000 -17.728500 0.000000
         }
        }
       }
      }
     }
     JOINT LeftCollar
     {
      OFFSET 2.921100 9.558500 0.000000
      CHANNELS 3 Yrotation Xrotation Zrotation
      JOINT LeftShoulder
      {
       OFFSET 13.519700 0.000000 0.000000
       CHANNELS 3 Yrotation Xrotation Zrotation
       JOINT LeftElbow
       {
        OFFSET 0.000000 -29.696600 0.000000
        CHANNELS 3 Yrotation Xrotation Zrotation
        JOINT LeftWrist
        {
         OFFSET 0.000000 -24.004700 0.000000
         CHANNELS 3 Yrotation Xrotation Zrotation
         End Site
         {
          OFFSET 0.000000 -17.728500 0.000000
         }
        }
       }
      }
     }
    }
   }
  }
 }
 JOINT RightHip
 {
  OFFSET -7.771700 -0.012900 -0.001300
  CHANNELS 3 Yrotation Xrotation Zrotation
  JOINT RightKnee
  {
   OFFSET 0.000000 -40.869800 0.001200
   CHANNELS 3 Yrotation Xrotation Zrotation
   JOINT RightAnkle
   {
    OFFSET 0.000000 -39.717900 0.002100
    CHANNELS 3 Yrotation Xrotation Zrotation
    JOINT RightToe
    {
     OFFSET 0.000000 -4.965400 11.033500
     CHANNELS 3 Yrotation Xrotation Zrotation
     End Site
     {
      OFFSET 0.000000 -1.423100 5.872300
     }
    }
   }
  }
 }
 JOINT LeftHip
 {
  OFFSET 7.771700 -0.012900 -0.001300
  CHANNELS 3 Yrotation Xrotation Zrotation
  JOINT LeftKnee
  {
   OFFSET 0.000000 -40.869800 0.001200
   CHANNELS 3 Yrotation Xrotation Zrotation
   JOINT LeftAnkle
   {
    OFFSET 0.000000 -39.717900 0.002100
    CHANNELS 3 Yrotation Xrotation Zrotation
    JOINT LeftToe
    {
     OFFSET 0.000000 -4.965400 11.033500
     CHANNELS 3 Yrotation Xrotation Zrotation
     End Site
     {
      OFFSET 0.000000 -1.423100 5.872300
     }
    }
   }
  }
 }
}
MOTION
Frames: 5
Frame Time: 0.008333
-53.924186 57.823802 11.542528 178.740593 -50.686288 -3.414052 2.116276 22.062317 3.150632 1.034723 12.609748 1.719761 1.375262 15.724597 2.208154 1.028725 12.624189 1.718304 -0.050547 16.558703 1.781731 -0.712662 -5.015938 3.286801 5.340243 2.309860 -0.029012 -4.016097 -31.591426 -20.544137 -57.455518 -41.074341 122.741775 -0.800924 5.722568 -15.919696 -10.436396 2.191945 -0.485004 17.741360 -25.720883 1.970270 103.652077 -59.136275 -122.358960 -1.769500 5.422833 -3.255722 4.366040 -20.812923 -3.590095 -29.906871 75.429979 -33.996574 7.094985 -16.823294 12.301702 -0.022091 -0.039969 0.052854 -7.603225 -18.423734 5.192259 87.557023 81.416359 86.753083 0.695674 -21.528379 -18.688680 0.040154 0.032752 0.020054
-53.923870 57.823962 11.541646 178.736100 -50.664921 -3.420629 2.114995 22.066994 3.154289 1.031596 12.612470 1.716687 1.362642 15.752058 2.197489 1.050425 12.585959 1.721337 -0.058163 16.564718 1.751474 -0.676512 -5.076493 3.259789 5.306318 2.353246 -0.046664 -4.702671 -31.420851 -20.322748 -57.811691 -41.169326 123.023057 -0.717673 5.786313 -15.880954 -10.437306 2.217317 -0.474301 17.837181 -25.526961 1.914212 103.636250 -59.145886 -122.395261 -1.772031 5.430332 -3.244637 4.378478 -20.832365 -3.571791 -29.952188 75.424380 -34.038253 7.074403 -16.828527 12.304642 -0.020167 -0.041807 0.032572 -7.604303 -18.443655 5.206919 87.548408 81.416643 86.745527 0.693322 -21.528002 -18.686701 0.044708 0.032458 0.018852
-53.924404 57.822739 11.542326 178.735965 -50.632338 -3.425830 2.106632 22.061956 3.152001 1.026914 12.614950 1.713072 1.352860 15.763280 2.191377 1.056992 12.581154 1.718273 -0.048638 16.539248 1.740178 -0.652550 -5.113811 3.224144 5.290207 2.360797 -0.064729 -5.388838 -31.240294 -20.096653 -58.194068 -41.293718 123.304700 -0.639217 5.849041 -15.845325 -10.423748 2.218700 -0.461875 17.933892 -25.324142 1.864441 103.607655 -59.158166 -122.425376 -1.772090 5.431743 -3.234152 4.390213 -20.865591 -3.561137 -29.995736 75.422434 -34.079376 7.074722 -16.839964 12.296351 -0.032085 -0.038060 0.037192 -7.604723 -18.477649 5.218877 87.552782 81.424377 86.749004 0.706075 -21.529209 -18.682528 0.037826 0.036763 0.016798
-53.925740 57.823209 11.542022 178.733905 -50.612624 -3.424165 2.098400 22.071760 3.144464 1.028891 12.600970 1.712576 1.344590 15.773205 2.187551 1.019180 12.626581 1.711042 0.001488 16.474055 1.731925 -0.639416 -5.145333 3.185223 5.300679 2.336479 -0.095932 -6.057386 -31.071013 -19.859023 -58.608783 -41.434706 123.579120 -0.566619 5.917489 -15.813505 -10.371948 2.204288 -0.443363 18.023794 -25.136524 1.812056 103.579247 -59.171167 -122.452741 -1.769277 5.435277 -3.227082 4.407546 -20.884154 -3.555394 -30.021254 75.424503 -34.105052 7.059685 -16.861853 12.288243 -0.026557 -0.027565 0.046398 -7.596778 -18.500817 5.225874 87.557366 81.435416 86.761889 0.683924 -21.526708 -18.672122 0.036177 0.029285 0.016057
-53.926626 57.823118 11.542720 178.731982 -50.587486 -3.424730 2.091773 22.077621 3.141650 1.030118 12.585823 1.710450 1.346991 15.766239 2.187200 1.009645 12.646942 1.711030 0.000308 16.458827 1.715519 -0.621593 -5.172327 3.174103 5.261102 2.353778 -0.127742 -6.703487 -30.911262 -19.611833 -59.051202 -41.577112 123.843802 -0.497976 5.995076 -15.786236 -10.358168 2.240626 -0.427639 18.100272 -24.957204 1.763583 103.556219 -59.183087 -122.479658 -1.766937 5.443066 -3.218226 4.419952 -20.907937 -3.545822 -30.018618 75.427390 -34.109925 7.052011 -16.879822 12.293413 -0.019275 -0.025448 0.040418 -7.596377 -18.525157 5.230876 87.526589 81.442829 86.730515 0.705400 -21.524350 -18.674084 0.037288 0.032629 0.016324
